<svg width="25" height="24" viewBox="0 0 25 24" fill="none" xmlns="http://www.w3.org/2000/svg">
<path d="M17.2297 2H7.0946C4.29586 2 2.02703 4.23858 2.02703 7V17C2.02703 19.7614 4.29586 22 7.0946 22H17.2297C20.0285 22 22.2973 19.7614 22.2973 17V7C22.2973 4.23858 20.0285 2 17.2297 2Z" stroke="black" stroke-width="2" stroke-linecap="round" stroke-linejoin="round"/>
<path d="M16.2162 11.3701C16.3413 12.2023 16.1972 13.0523 15.8045 13.7991C15.4118 14.5459 14.7904 15.1515 14.0287 15.5297C13.267 15.908 12.4038 16.0397 11.5619 15.906C10.7201 15.7723 9.94233 15.3801 9.33936 14.7852C8.7364 14.1903 8.33892 13.4229 8.20345 12.5923C8.06798 11.7616 8.20142 10.91 8.58479 10.1584C8.96816 9.40691 9.58195 8.7938 10.3388 8.4063C11.0957 8.0188 11.9572 7.87665 12.8007 8.00006C13.6611 8.12594 14.4576 8.52152 15.0727 9.12836C15.6877 9.73521 16.0886 10.5211 16.2162 11.3701Z" stroke="black" stroke-width="2" stroke-linecap="round" stroke-linejoin="round"/>
<path d="M17.7365 6.5H17.7465" stroke="black" stroke-width="2" stroke-linecap="round" stroke-linejoin="round"/>
</svg>
