<svg width="30" height="24" viewBox="0 0 30 24" fill="none" xmlns="http://www.w3.org/2000/svg">
<path d="M28.175 6.42C28.0265 5.94541 27.7241 5.51057 27.2983 5.15941C26.8725 4.80824 26.3384 4.55318 25.75 4.42C23.6 4 15 4 15 4C15 4 6.4 4 4.25 4.46C3.66156 4.59318 3.12747 4.84824 2.70168 5.19941C2.27589 5.55057 1.97348 5.98541 1.825 6.46C1.43152 8.20556 1.23904 9.97631 1.25 11.75C1.23597 13.537 1.42846 15.3213 1.825 17.08C1.9887 17.5398 2.29788 17.9581 2.72268 18.2945C3.14747 18.6308 3.67352 18.8738 4.25 19C6.4 19.46 15 19.46 15 19.46C15 19.46 23.6 19.46 25.75 19C26.3384 18.8668 26.8725 18.6118 27.2983 18.2606C27.7241 17.9094 28.0265 17.4746 28.175 17C28.5654 15.2676 28.7579 13.5103 28.75 11.75C28.764 9.96295 28.5715 8.1787 28.175 6.42V6.42Z" stroke="black" stroke-width="2" stroke-linecap="round" stroke-linejoin="round"/>
<path d="M12.1875 15.02L19.375 11.75L12.1875 8.47998V15.02Z" stroke="black" stroke-width="2" stroke-linecap="round" stroke-linejoin="round"/>
</svg>
