<svg width="92" height="30" viewBox="0 0 92 30" fill="none" xmlns="http://www.w3.org/2000/svg">
<path d="M32.3882 27C32.2682 27 32.1662 26.964 32.0822 26.892C32.0102 26.808 31.9742 26.706 31.9742 26.586V14.832C31.9742 14.7 32.0102 14.598 32.0822 14.526C32.1662 14.442 32.2682 14.4 32.3882 14.4H37.3202C38.6042 14.4 39.5702 14.706 40.2182 15.318C40.8662 15.93 41.1902 16.734 41.1902 17.73C41.1902 18.402 41.0342 18.96 40.7222 19.404C40.4222 19.848 40.0622 20.172 39.6422 20.376C40.1462 20.628 40.5722 21.018 40.9202 21.546C41.2682 22.074 41.4422 22.68 41.4422 23.364C41.4422 24.036 41.2862 24.648 40.9742 25.2C40.6742 25.752 40.2242 26.19 39.6242 26.514C39.0242 26.838 38.3042 27 37.4642 27H32.3882ZM37.0502 19.728C37.8062 19.728 38.3822 19.554 38.7782 19.206C39.1862 18.858 39.3902 18.372 39.3902 17.748C39.3902 17.136 39.1922 16.668 38.7962 16.344C38.4002 16.02 37.8182 15.858 37.0502 15.858H33.7382V19.728H37.0502ZM37.2302 25.542C37.9862 25.542 38.5742 25.338 38.9942 24.93C39.4262 24.522 39.6422 24 39.6422 23.364C39.6422 22.704 39.4262 22.176 38.9942 21.78C38.5742 21.372 37.9862 21.168 37.2302 21.168H33.7382V25.542H37.2302ZM46.7556 27.18C45.6156 27.18 44.7336 26.814 44.1096 26.082C43.4856 25.338 43.1736 24.354 43.1736 23.13V18.054C43.1736 17.934 43.2096 17.838 43.2816 17.766C43.3656 17.682 43.4676 17.64 43.5876 17.64H44.4876C44.6076 17.64 44.7036 17.682 44.7756 17.766C44.8596 17.838 44.9016 17.934 44.9016 18.054V23.04C44.9016 24.828 45.6816 25.722 47.2416 25.722C47.9976 25.722 48.5976 25.488 49.0416 25.02C49.4856 24.54 49.7076 23.88 49.7076 23.04V18.054C49.7076 17.934 49.7436 17.838 49.8156 17.766C49.8996 17.682 50.0016 17.64 50.1216 17.64H51.0216C51.1416 17.64 51.2376 17.682 51.3096 17.766C51.3816 17.838 51.4176 17.934 51.4176 18.054V26.586C51.4176 26.706 51.3816 26.808 51.3096 26.892C51.2376 26.964 51.1416 27 51.0216 27H50.1756C50.0556 27 49.9536 26.964 49.8696 26.892C49.7976 26.808 49.7616 26.706 49.7616 26.586V25.794C49.4256 26.25 49.0176 26.598 48.5376 26.838C48.0576 27.066 47.4636 27.18 46.7556 27.18ZM53.8618 15.894C53.7418 15.894 53.6398 15.858 53.5558 15.786C53.4838 15.702 53.4478 15.6 53.4478 15.48V14.508C53.4478 14.388 53.4838 14.286 53.5558 14.202C53.6398 14.118 53.7418 14.076 53.8618 14.076H54.9958C55.1158 14.076 55.2178 14.118 55.3018 14.202C55.3858 14.286 55.4278 14.388 55.4278 14.508V15.48C55.4278 15.6 55.3858 15.702 55.3018 15.786C55.2178 15.858 55.1158 15.894 54.9958 15.894H53.8618ZM54.0058 27C53.8858 27 53.7838 26.964 53.6998 26.892C53.6278 26.808 53.5918 26.706 53.5918 26.586V18.054C53.5918 17.934 53.6278 17.838 53.6998 17.766C53.7838 17.682 53.8858 17.64 54.0058 17.64H54.8698C54.9898 17.64 55.0858 17.682 55.1578 17.766C55.2418 17.838 55.2838 17.934 55.2838 18.054V26.586C55.2838 26.706 55.2418 26.808 55.1578 26.892C55.0858 26.964 54.9898 27 54.8698 27H54.0058ZM57.8831 27C57.7631 27 57.6611 26.964 57.5771 26.892C57.5051 26.808 57.4691 26.706 57.4691 26.586V14.634C57.4691 14.514 57.5051 14.418 57.5771 14.346C57.6611 14.262 57.7631 14.22 57.8831 14.22H58.7291C58.8491 14.22 58.9451 14.262 59.0171 14.346C59.1011 14.418 59.1431 14.514 59.1431 14.634V26.586C59.1431 26.706 59.1011 26.808 59.0171 26.892C58.9451 26.964 58.8491 27 58.7291 27H57.8831ZM64.7481 27.18C63.5001 27.18 62.5581 26.772 61.9221 25.956C61.2861 25.14 60.9501 24.108 60.9141 22.86L60.8961 22.32L60.9141 21.78C60.9501 20.544 61.2861 19.518 61.9221 18.702C62.5581 17.874 63.5001 17.46 64.7481 17.46C65.9841 17.46 66.9561 17.898 67.6641 18.774V14.634C67.6641 14.514 67.7001 14.418 67.7721 14.346C67.8561 14.262 67.9581 14.22 68.0781 14.22H68.9421C69.0621 14.22 69.1581 14.262 69.2301 14.346C69.3141 14.418 69.3561 14.514 69.3561 14.634V26.586C69.3561 26.706 69.3141 26.808 69.2301 26.892C69.1581 26.964 69.0621 27 68.9421 27H68.1321C68.0121 27 67.9101 26.964 67.8261 26.892C67.7541 26.808 67.7181 26.706 67.7181 26.586V25.83C67.0221 26.73 66.0321 27.18 64.7481 27.18ZM65.1261 25.722C65.9541 25.722 66.5721 25.452 66.9801 24.912C67.4001 24.36 67.6281 23.706 67.6641 22.95C67.6761 22.818 67.6821 22.59 67.6821 22.266C67.6821 21.93 67.6761 21.696 67.6641 21.564C67.6401 20.856 67.4121 20.238 66.9801 19.71C66.5481 19.182 65.9301 18.918 65.1261 18.918C64.2741 18.918 63.6501 19.182 63.2541 19.71C62.8701 20.238 62.6601 20.934 62.6241 21.798L62.6061 22.32C62.6061 24.588 63.4461 25.722 65.1261 25.722Z" fill="white"/>
<path d="M71.0112 27C70.9152 27 70.8252 26.964 70.7412 26.892C70.6692 26.82 70.6332 26.736 70.6332 26.64C70.6332 26.556 70.6572 26.478 70.7052 26.406L74.8272 20.592L70.9032 14.994C70.8672 14.934 70.8492 14.856 70.8492 14.76C70.8492 14.664 70.8852 14.58 70.9572 14.508C71.0292 14.436 71.1132 14.4 71.2092 14.4H72.2892C72.4692 14.4 72.6312 14.502 72.7752 14.706L75.9432 19.206L79.0932 14.706C79.2132 14.502 79.3692 14.4 79.5612 14.4H80.5872C80.6832 14.4 80.7672 14.436 80.8392 14.508C80.9112 14.58 80.9472 14.664 80.9472 14.76C80.9472 14.868 80.9232 14.946 80.8752 14.994L77.0052 20.61L81.1092 26.406C81.1572 26.478 81.1812 26.556 81.1812 26.64C81.1812 26.736 81.1452 26.82 81.0732 26.892C81.0012 26.964 80.9112 27 80.8032 27H79.7052C79.5252 27 79.3632 26.898 79.2192 26.694L75.8712 22.032L72.5412 26.694C72.4212 26.898 72.2652 27 72.0732 27H71.0112Z" fill="#222F33"/>
<path d="M4 11.4583L16.375 3L28.75 11.4583V24.75C28.75 25.3909 28.4603 26.0056 27.9445 26.4588C27.4288 26.9121 26.7293 27.1667 26 27.1667H6.75C6.02065 27.1667 5.32118 26.9121 4.80546 26.4588C4.28973 26.0056 4 25.3909 4 24.75V11.4583Z" stroke="white" stroke-width="2" stroke-linecap="round" stroke-linejoin="round"/>
<path d="M12 26.5833V14.5H20.25V26.5833" stroke="white" stroke-width="2" stroke-linecap="round" stroke-linejoin="round"/>
</svg>
