<svg width="19" height="19" viewBox="0 0 19 19" fill="none" xmlns="http://www.w3.org/2000/svg">
<path d="M15.0837 9.6746L11.2047 13.526C11.0801 13.6492 10.9243 13.7108 10.7685 13.7108C10.6127 13.7108 10.4569 13.6492 10.3323 13.526C10.0831 13.2795 10.0831 12.8943 10.3323 12.6478L13.152 9.84406H4.05428C3.71156 9.84406 3.43115 9.56676 3.43115 9.22784C3.43115 8.88893 3.71156 8.61163 4.05428 8.61163H13.152L10.3323 5.80785C10.0831 5.56136 10.0831 5.17622 10.3323 4.92974C10.5816 4.68325 10.971 4.68325 11.2203 4.92974L15.0993 8.78109C15.3329 9.04298 15.3329 9.44352 15.0837 9.6746Z" fill="black"/>
</svg>
