<svg width="30" height="30" viewBox="0 0 30 30" fill="none" xmlns="http://www.w3.org/2000/svg">
<path d="M26.0028 1.75781C25.275 1.75781 24.5926 1.93061 24.0042 2.23078V0.878906C24.0042 0.393516 23.5568 0 23.0049 0H7.01623C6.46428 0 6.01687 0.393516 6.01687 0.878906V2.2415C5.42376 1.93465 4.73364 1.75781 3.99717 1.75781C1.79313 1.75781 0 3.33492 0 5.27344C0 6.75205 0.49818 8.18074 1.44065 9.40512C3.04511 11.4895 5.02364 12.0304 6.66081 12.6063C7.60481 14.674 9.51379 16.3126 11.8951 17.0885L11.1582 21.2109H11.0134C9.36036 21.2109 8.01552 22.3938 8.01552 23.8477V28.2422H7.01623C6.46435 28.2422 6.01693 28.6357 6.01693 29.1211C6.01693 29.6065 6.46435 30 7.01623 30H23.0049C23.5568 30 24.0042 29.6065 24.0042 29.1211C24.0042 28.6357 23.5568 28.2422 23.0049 28.2422H22.0056V23.8477C22.0056 22.3938 20.6608 21.2109 19.0077 21.2109H18.8629L18.1261 17.0885C20.5109 16.3115 22.422 14.6693 23.3646 12.5974C24.9111 12.0533 26.9384 11.5109 28.5594 9.40512C29.5018 8.18074 30 6.75199 30 5.27344C29.9999 3.33492 28.2068 1.75781 26.0028 1.75781ZM6.00947 10.484C3.57293 9.62678 1.99858 7.58156 1.99858 5.27344C1.99858 4.30418 2.89515 3.51562 3.99717 3.51562C5.09919 3.51562 5.99575 4.30418 5.99575 5.27344C5.99575 5.33525 6.00314 5.39549 6.01693 5.45367V9.66797C6.01693 9.95045 6.03419 10.2294 6.06723 10.5043L6.00947 10.484ZM20.007 28.2422H10.0141V26.4844H20.007V28.2422ZM19.0077 22.9688C19.5587 22.9688 20.007 23.363 20.007 23.8477V24.7266H10.0141V23.8477C10.0141 23.363 10.4624 22.9688 11.0134 22.9688C11.5555 22.9688 17.7363 22.9688 19.0077 22.9688ZM13.1813 21.2109L13.8426 17.5115C14.225 17.5553 14.6148 17.5781 15.0106 17.5781C15.4063 17.5781 15.7961 17.5553 16.1785 17.5115L16.8398 21.2109H13.1813ZM22.0056 9.66797C22.0056 13.0604 18.8676 15.8203 15.0106 15.8203C11.1535 15.8203 8.01552 13.0604 8.01552 9.66797V5.27344H22.0056V9.66797ZM22.0056 3.51562H8.01552V1.75781H22.0056V3.51562ZM23.9904 10.484L23.9549 10.4965C23.9873 10.2241 24.0041 9.94775 24.0041 9.66797V5.27344C24.0042 4.30418 24.9007 3.51562 26.0028 3.51562C27.1048 3.51562 28.0014 4.30418 28.0014 5.27344C28.0014 7.58156 26.427 9.62684 23.9904 10.484Z" fill="black"/>
</svg>
