<svg width="25" height="24" viewBox="0 0 25 24" fill="none" xmlns="http://www.w3.org/2000/svg">
<path d="M4.02045 3H20.1022C20.6354 3 21.1467 3.21071 21.5237 3.58579C21.9006 3.96086 22.1124 4.46957 22.1124 5V11C22.1124 13.6522 21.0535 16.1957 19.1685 18.0711C17.2836 19.9464 14.7271 21 12.0613 21C10.7414 21 9.4344 20.7413 8.21494 20.2388C6.99548 19.7362 5.88746 18.9997 4.95412 18.0711C3.06918 16.1957 2.01022 13.6522 2.01022 11V5C2.01022 4.46957 2.22201 3.96086 2.599 3.58579C2.97599 3.21071 3.4873 3 4.02045 3V3Z" stroke="white" stroke-width="2" stroke-linecap="round" stroke-linejoin="round"/>
<path d="M8.04089 10L12.0613 14L16.0818 10" stroke="white" stroke-width="2" stroke-linecap="round" stroke-linejoin="round"/>
</svg>
