<svg width="25" height="24" viewBox="0 0 25 24" fill="none" xmlns="http://www.w3.org/2000/svg">
<g clip-path="url(#clip0)">
<path d="M14.3646 5C15.3463 5.19057 16.2485 5.66826 16.9558 6.37194C17.6631 7.07561 18.1432 7.97326 18.3348 8.95L14.3646 5ZM14.3646 1C16.4042 1.22544 18.3062 2.13417 19.7582 3.57701C21.2103 5.01984 22.1261 6.91101 22.3552 8.94L14.3646 1ZM21.3501 16.92V19.92C21.3512 20.1985 21.2939 20.4742 21.1818 20.7293C21.0696 20.9845 20.9051 21.2136 20.6989 21.4019C20.4926 21.5901 20.2491 21.7335 19.9839 21.8227C19.7187 21.9119 19.4377 21.9451 19.159 21.92C16.0661 21.5856 13.0951 20.5341 10.4848 18.85C8.05633 17.3147 5.99737 15.2662 4.45419 12.85C2.75553 10.2412 1.69842 7.27099 1.36849 4.18C1.34338 3.90347 1.37641 3.62476 1.46549 3.36162C1.55457 3.09849 1.69774 2.85669 1.88589 2.65162C2.07404 2.44655 2.30305 2.28271 2.55834 2.17052C2.81362 2.05833 3.08959 2.00026 3.36867 2H6.384C6.87178 1.99522 7.34467 2.16708 7.71452 2.48353C8.08438 2.79999 8.32595 3.23945 8.39422 3.72C8.52149 4.68007 8.75752 5.62273 9.0978 6.53C9.23303 6.88792 9.2623 7.27691 9.18213 7.65088C9.10197 8.02485 8.91573 8.36811 8.6455 8.64L7.36901 9.91C8.79984 12.4135 10.8833 14.4864 13.3997 15.91L14.6762 14.64C14.9494 14.3711 15.2945 14.1858 15.6703 14.1061C16.0462 14.0263 16.4372 14.0555 16.7969 14.19C17.7089 14.5286 18.6563 14.7634 19.6213 14.89C20.1096 14.9585 20.5555 15.2032 20.8742 15.5775C21.193 15.9518 21.3623 16.4296 21.3501 16.92Z" stroke="white" stroke-width="2" stroke-linecap="round" stroke-linejoin="round"/>
</g>
<defs>
<clipPath id="clip0">
<rect width="24.1227" height="24" fill="white" transform="translate(0.35434)"/>
</clipPath>
</defs>
</svg>
