<svg width="20" height="20" viewBox="0 0 20 20" fill="none" xmlns="http://www.w3.org/2000/svg">
<path d="M4.82375 8.4C5.14363 8.4 5.45042 8.27357 5.67661 8.04853C5.90281 7.82348 6.02988 7.51826 6.02988 7.2C6.02988 6.88174 5.90281 6.57652 5.67661 6.35147C5.45042 6.12643 5.14363 6 4.82375 6C4.50386 6 4.19708 6.12643 3.97088 6.35147C3.74469 6.57652 3.61761 6.88174 3.61761 7.2C3.61761 7.51826 3.74469 7.82348 3.97088 8.04853C4.19708 8.27357 4.50386 8.4 4.82375 8.4Z" fill="white"/>
<path d="M9.64827 10.8C9.96816 10.8 10.2749 10.6736 10.5011 10.4486C10.7273 10.2235 10.8544 9.91829 10.8544 9.60003C10.8544 9.28177 10.7273 8.97654 10.5011 8.7515C10.2749 8.52645 9.96816 8.40002 9.64827 8.40002C9.32839 8.40002 9.0216 8.52645 8.79541 8.7515C8.56921 8.97654 8.44214 9.28177 8.44214 9.60003C8.44214 9.91829 8.56921 10.2235 8.79541 10.4486C9.0216 10.6736 9.32839 10.8 9.64827 10.8Z" fill="white"/>
<path d="M13.2667 14.4C13.2667 14.7182 13.1396 15.0234 12.9134 15.2485C12.6872 15.4735 12.3804 15.6 12.0605 15.6C11.7406 15.6 11.4339 15.4735 11.2077 15.2485C10.9815 15.0234 10.8544 14.7182 10.8544 14.4C10.8544 14.0817 10.9815 13.7765 11.2077 13.5514C11.4339 13.3264 11.7406 13.2 12.0605 13.2C12.3804 13.2 12.6872 13.3264 12.9134 13.5514C13.1396 13.7765 13.2667 14.0817 13.2667 14.4Z" fill="white"/>
<path d="M6.02986 14.4C6.34975 14.4 6.65653 14.2736 6.88273 14.0485C7.10892 13.8235 7.236 13.5183 7.236 13.2C7.236 12.8817 7.10892 12.5765 6.88273 12.3515C6.65653 12.1264 6.34975 12 6.02986 12C5.70998 12 5.40319 12.1264 5.177 12.3515C4.95081 12.5765 4.82373 12.8817 4.82373 13.2C4.82373 13.5183 4.95081 13.8235 5.177 14.0485C5.40319 14.2736 5.70998 14.4 6.02986 14.4Z" fill="white"/>
<path d="M9.64826 1.3426e-06C7.66546 0.000165846 5.73085 0.608063 4.10764 1.74099C2.48443 2.87391 1.25143 4.47686 0.576393 6.33173C-0.0986408 8.18661 -0.182932 10.2033 0.334987 12.1076C0.852907 14.0118 1.94789 15.7111 3.47096 16.9742C4.99403 18.2372 6.87123 19.0028 8.84717 19.1668C10.8231 19.3307 12.8018 18.8851 14.5142 17.8904C16.2265 16.8958 17.5892 15.4004 18.417 13.6078C19.2448 11.8153 19.4974 9.8125 19.1405 7.872C19.1201 7.76124 19.0687 7.65844 18.9922 7.57537C18.9158 7.49231 18.8174 7.43232 18.7083 7.40227C18.5992 7.37223 18.4838 7.37334 18.3753 7.40547C18.2668 7.43761 18.1696 7.49948 18.0948 7.584C17.7712 7.95074 17.3429 8.21062 16.8671 8.32898C16.3912 8.44734 15.8904 8.41857 15.4314 8.24648C14.9724 8.0744 14.577 7.7672 14.298 7.36583C14.019 6.96447 13.8696 6.48801 13.8697 6C13.8696 5.8467 13.8169 5.69803 13.7204 5.57849C13.624 5.45895 13.4894 5.37568 13.339 5.3424C12.9149 5.24741 12.5245 5.04016 12.2091 4.74259C11.8936 4.44501 11.6649 4.06815 11.547 3.65186C11.4291 3.23558 11.4265 2.79533 11.5394 2.37768C11.6523 1.96003 11.8765 1.58049 12.1884 1.2792C12.2659 1.20435 12.3217 1.11018 12.3501 1.00651C12.3785 0.902847 12.3784 0.793497 12.3498 0.689886C12.3212 0.586274 12.2652 0.492203 12.1876 0.417498C12.1099 0.342793 12.0136 0.290196 11.9086 0.265201C11.1682 0.0886172 10.4096 -0.000398738 9.64826 1.3426e-06ZM1.20533 9.6C1.20526 8.40861 1.45992 7.23084 1.9524 6.14487C2.44489 5.05891 3.16393 4.08959 4.06178 3.30128C4.95964 2.51297 6.01577 1.9237 7.16006 1.57259C8.30436 1.22148 9.51063 1.11656 10.6988 1.2648C10.4446 1.72414 10.2943 2.23318 10.2585 2.75632C10.2227 3.27947 10.3021 3.80409 10.4913 4.29349C10.6805 4.7829 10.9749 5.22527 11.3539 5.58968C11.7328 5.95409 12.1872 6.23174 12.6853 6.4032C12.7523 6.99609 12.9663 7.56312 13.3081 8.05332C13.6499 8.54351 14.1088 8.94151 14.6436 9.2115C15.1783 9.4815 15.7721 9.61504 16.3716 9.60012C16.9711 9.58519 17.5574 9.42227 18.0779 9.126C18.1412 10.247 17.9779 11.3693 17.5977 12.4264C17.2175 13.4836 16.6282 14.4542 15.8646 15.2809C15.1009 16.1075 14.1784 16.7735 13.1517 17.2394C12.1249 17.7053 11.0146 17.9617 9.88656 17.9934C8.75849 18.0251 7.63548 17.8314 6.58391 17.4239C5.53235 17.0164 4.57357 16.4033 3.76425 15.6208C2.95492 14.8383 2.31149 13.9023 1.87197 12.8682C1.43245 11.8341 1.20577 10.7228 1.20533 9.6Z" fill="white"/>
</svg>
